<svg width="16" height="16" viewBox="0 0 16 16" fill="none" xmlns="http://www.w3.org/2000/svg">
<g id="download_2">
<mask id="mask0_16_1398" style="mask-type:alpha" maskUnits="userSpaceOnUse" x="0" y="0" width="16" height="16">
<rect id="Bounding box" width="16" height="16" fill="#D9D9D9"/>
</mask>
<g mask="url(#mask0_16_1398)">
<path id="download_2_2" d="M3.33329 14.6666C3.1444 14.6666 2.98607 14.6027 2.85829 14.4749C2.73051 14.3471 2.66663 14.1888 2.66663 13.9999C2.66663 13.811 2.73051 13.6527 2.85829 13.5249C2.98607 13.3971 3.1444 13.3333 3.33329 13.3333H12.6666C12.8555 13.3333 13.0138 13.3971 13.1416 13.5249C13.2694 13.6527 13.3333 13.811 13.3333 13.9999C13.3333 14.1888 13.2694 14.3471 13.1416 14.4749C13.0138 14.6027 12.8555 14.6666 12.6666 14.6666H3.33329ZM7.99996 11.5833C7.89996 11.5833 7.80274 11.561 7.70829 11.5166C7.61385 11.4721 7.53329 11.4055 7.46663 11.3166L4.16663 7.08325C3.99996 6.86103 3.97774 6.62492 4.09996 6.37492C4.22218 6.12492 4.42218 5.99992 4.69996 5.99992H5.99996V1.99992C5.99996 1.81103 6.06385 1.6527 6.19163 1.52492C6.3194 1.39714 6.47774 1.33325 6.66663 1.33325H9.33329C9.52218 1.33325 9.68052 1.39714 9.80829 1.52492C9.93607 1.6527 9.99996 1.81103 9.99996 1.99992V5.99992H11.3C11.5777 5.99992 11.7777 6.12492 11.9 6.37492C12.0222 6.62492 12 6.86103 11.8333 7.08325L8.53329 11.3166C8.46663 11.4055 8.38607 11.4721 8.29163 11.5166C8.19718 11.561 8.09996 11.5833 7.99996 11.5833ZM7.99996 9.83325L9.93329 7.33325H8.66663V2.66659H7.33329V7.33325H6.06663L7.99996 9.83325Z" fill="black"/>
</g>
</g>
</svg>
