<svg width="24" height="24" viewBox="0 0 24 24" fill="none" xmlns="http://www.w3.org/2000/svg">
<g id="filter_alt_off">
<mask id="mask0_118_4180" style="mask-type:alpha" maskUnits="userSpaceOnUse" x="0" y="0" width="24" height="24">
<rect id="Bounding box" width="24" height="24" fill="#D9D9D9"/>
</mask>
<g mask="url(#mask0_118_4180)">
<path id="filter_alt_off_2" d="M14.8 11.975L13.375 10.55L16.95 5.99998H8.82495L6.82495 3.99998H19C19.4166 3.99998 19.7166 4.18331 19.9 4.54998C20.0833 4.91664 20.05 5.26664 19.8 5.59998L14.8 11.975ZM14 16.825V19C14 19.2833 13.9041 19.5208 13.7125 19.7125C13.5208 19.9041 13.2833 20 13 20H11C10.7166 20 10.4791 19.9041 10.2875 19.7125C10.0958 19.5208 9.99995 19.2833 9.99995 19V12.825L2.09995 4.92498C1.91662 4.74164 1.82495 4.51248 1.82495 4.23748C1.82495 3.96248 1.91662 3.72498 2.09995 3.52498C2.29995 3.32498 2.53745 3.22498 2.81245 3.22498C3.08745 3.22498 3.32495 3.32498 3.52495 3.52498L20.5 20.5C20.7 20.7 20.7958 20.9333 20.7875 21.2C20.7791 21.4666 20.675 21.7 20.475 21.9C20.275 22.0833 20.0416 22.1791 19.775 22.1875C19.5083 22.1958 19.275 22.1 19.075 21.9L14 16.825Z" fill="#1C1B1F"/>
</g>
</g>
</svg>
