<svg width="17" height="20" viewBox="0 0 17 20" fill="none" xmlns="http://www.w3.org/2000/svg">
<g clip-path="url(#clip0_50_1317)">
<path d="M5.92079 11.0437C6.07812 10.7297 6.16667 10.3752 6.16667 10C6.16667 9.62482 6.07812 9.27033 5.92079 8.95627M5.92079 11.0437C5.53771 11.8084 4.74682 12.3333 3.83333 12.3333C2.54467 12.3333 1.5 11.2887 1.5 10C1.5 8.71134 2.54467 7.66667 3.83333 7.66667C4.74682 7.66667 5.53771 8.1916 5.92079 8.95627M5.92079 11.0437L11.0792 13.6229M5.92079 8.95627L11.0792 6.37706M11.0792 6.37706C11.4623 7.14173 12.2532 7.66667 13.1667 7.66667C14.4553 7.66667 15.5 6.622 15.5 5.33333C15.5 4.04467 14.4553 3 13.1667 3C11.878 3 10.8333 4.04467 10.8333 5.33333C10.8333 5.70851 10.9219 6.063 11.0792 6.37706ZM11.0792 13.6229C10.9219 13.937 10.8333 14.2915 10.8333 14.6667C10.8333 15.9553 11.878 17 13.1667 17C14.4553 17 15.5 15.9553 15.5 14.6667C15.5 13.378 14.4553 12.3333 13.1667 12.3333C12.2532 12.3333 11.4623 12.8583 11.0792 13.6229Z" stroke="black" stroke-width="2" stroke-linecap="round" stroke-linejoin="round"/>
</g>
<defs>
<clipPath id="clip0_50_1317">
<rect width="16" height="16" fill="white" transform="translate(0.5 2)"/>
</clipPath>
</defs>
</svg>
