<svg width="16" height="16" viewBox="0 0 16 16" fill="none" xmlns="http://www.w3.org/2000/svg">
<path id="Icon" d="M5.42079 9.04373C5.57812 8.72967 5.66667 8.37518 5.66667 8C5.66667 7.62482 5.57812 7.27033 5.42079 6.95627M5.42079 9.04373C5.03771 9.8084 4.24682 10.3333 3.33333 10.3333C2.04467 10.3333 1 9.28866 1 8C1 6.71134 2.04467 5.66667 3.33333 5.66667C4.24682 5.66667 5.03771 6.1916 5.42079 6.95627M5.42079 9.04373L10.5792 11.6229M5.42079 6.95627L10.5792 4.37706M10.5792 4.37706C10.9623 5.14173 11.7532 5.66667 12.6667 5.66667C13.9553 5.66667 15 4.622 15 3.33333C15 2.04467 13.9553 1 12.6667 1C11.378 1 10.3333 2.04467 10.3333 3.33333C10.3333 3.70851 10.4219 4.063 10.5792 4.37706ZM10.5792 11.6229C10.4219 11.937 10.3333 12.2915 10.3333 12.6667C10.3333 13.9553 11.378 15 12.6667 15C13.9553 15 15 13.9553 15 12.6667C15 11.378 13.9553 10.3333 12.6667 10.3333C11.7532 10.3333 10.9623 10.8583 10.5792 11.6229Z" stroke="black" stroke-width="2" stroke-linecap="round" stroke-linejoin="round"/>
</svg>
