<svg width="41" height="40" viewBox="0 0 41 40" fill="none" xmlns="http://www.w3.org/2000/svg">
<g id="kid_star">
<mask id="mask0_170_4933" style="mask-type:alpha" maskUnits="userSpaceOnUse" x="0" y="0" width="41" height="40">
<rect id="Bounding box" x="0.25" width="40" height="40" fill="#D9D9D9"/>
</mask>
<g mask="url(#mask0_170_4933)">
<path id="kid_star_2" d="M12.9585 10.6666L17.6252 4.62492C17.9585 4.18047 18.3543 3.85409 18.8127 3.64575C19.271 3.43742 19.7502 3.33325 20.2502 3.33325C20.7502 3.33325 21.2293 3.43742 21.6877 3.64575C22.146 3.85409 22.5418 4.18047 22.8752 4.62492L27.5418 10.6666L34.6252 13.0416C35.3474 13.2638 35.9168 13.6735 36.3335 14.2708C36.7502 14.868 36.9585 15.5277 36.9585 16.2499C36.9585 16.5833 36.9099 16.9166 36.8127 17.2499C36.7154 17.5833 36.5557 17.9027 36.3335 18.2083L31.7502 24.7083L31.9168 31.5416C31.9446 32.5138 31.6252 33.3333 30.9585 33.9999C30.2918 34.6666 29.5141 34.9999 28.6252 34.9999C28.5696 34.9999 28.2641 34.9583 27.7085 34.8749L20.2502 32.7916L12.7918 34.8749C12.6529 34.9305 12.5002 34.9652 12.3335 34.9791C12.1668 34.993 12.0141 34.9999 11.8752 34.9999C10.9863 34.9999 10.2085 34.6666 9.54183 33.9999C8.87516 33.3333 8.55572 32.5138 8.5835 31.5416L8.75016 24.6666L4.2085 18.2083C3.98627 17.9027 3.82655 17.5833 3.72933 17.2499C3.63211 16.9166 3.5835 16.5833 3.5835 16.2499C3.5835 15.5555 3.78489 14.9096 4.18766 14.3124C4.59044 13.7152 5.15294 13.2916 5.87516 13.0416L12.9585 10.6666ZM15.0002 13.5416L6.91683 16.2083L12.0835 23.6666L11.9168 31.6249L20.2502 29.3333L28.5835 31.6666L28.4168 23.6666L33.5835 16.2916L25.5002 13.5416L20.2502 6.66659L15.0002 13.5416Z" fill="#1C1B1F"/>
</g>
</g>
</svg>
